<?xml version="1.0" encoding="UTF-8"?>
<svg id="Capa_2" data-name="Capa 2" xmlns="http://www.w3.org/2000/svg" viewBox="0 0 495.22 680.96">
  <defs>
    <style>
      .cls-1 {
        font-size: 70px;
        letter-spacing: .38em;
      }

      .cls-1, .cls-2 {
        font-family: Kaleko105RoundW01-Bold, Kaleko105RoundW01-Bold;
        font-weight: 700;
      }

      .cls-3 {
        letter-spacing: .38em;
      }

      .cls-3, .cls-4 {
        font-size: 143.21px;
      }

      .cls-3, .cls-5 {
        font-family: MyriadPro-Regular, 'Myriad Pro';
      }

      .cls-4, .cls-6 {
        fill: #fff;
      }

      .cls-7, .cls-6 {
        stroke-width: 0px;
      }

      .cls-7, .cls-8 {
        fill: #0d4272;
      }
    </style>
  </defs>
  <g id="Capa_1-2" data-name="Capa 1">
    <g>
      <path class="cls-7" d="m453.54,212.92v42.03H0v-42.03c0-10.88,8.8-19.7,19.68-19.7h252.59c-.43-1.53-.64-3.12-.64-4.77,0-11.52,10.69-20.85,23.85-20.85,6.68,0,12.69,2.39,17.01,6.23v-99.57h1.5l89.14-24.45v116.29c0,1.96-.31,3.86-.91,5.65-2.81,8.78-12.02,15.22-22.95,15.22-13.17,0-23.85-9.35-23.85-20.87s10.69-20.87,23.85-20.87c5.51,0,10.59,1.65,14.62,4.39v-74.33l-72.18,19.82v98.11h112.11c10.88,0,19.7,8.83,19.7,19.7Z"/>
      <path class="cls-6" d="m31.01,365.28h9.54v81.1h-21.33c-10.62,0-19.23-8.61-19.23-19.23v-165.05h22.07v94.22c0,4.94,4.01,8.95,8.95,8.95Z"/>
      <path class="cls-6" d="m88.57,262.11v184.27h-39.07v-81.1h9.54c4.94,0,8.95-4.01,8.95-8.95v-94.22h20.59Z"/>
      <path class="cls-6" d="m126.12,365.28h7.47v81.1h-38.76v-184.27h19.68v91.55c0,6.42,5.2,11.62,11.62,11.62Z"/>
      <path class="cls-6" d="m178.91,262.11v184.27h-36.38v-81.1h6.25c6.44,0,11.64-5.2,11.64-11.62v-91.55h18.49Z"/>
      <path class="cls-6" d="m218.48,365.28h7.08v81.1h-39.19v-184.27h21.3v92.36c0,5.96,4.84,10.81,10.81,10.81Z"/>
      <path class="cls-6" d="m274.92,262.11v184.27h-40.41v-81.1h8.28c5.96,0,10.81-4.84,10.81-10.81v-92.36h21.33Z"/>
      <path class="cls-6" d="m310.41,365.28h8.18v81.1h-37.43v-184.27h19.39v93.32c0,5.44,4.41,9.85,9.85,9.85Z"/>
      <path class="cls-6" d="m364.97,262.11v184.27h-37.43v-81.1h9.11c5.41,0,9.83-4.41,9.83-9.85v-93.32h18.49Z"/>
      <path class="cls-6" d="m398.44,365.28h12v81.1h-38.31v-184.27h17.75v94.61c0,4.72,3.84,8.56,8.56,8.56Z"/>
      <path class="cls-6" d="m453.54,262.11v165.05c0,10.62-8.61,19.23-19.25,19.23h-14.91v-81.1h7.82c4.75,0,8.59-3.84,8.59-8.56v-94.61h17.75Z"/>
    </g>
    <path class="cls-7" d="m486.62,27.53v8.61c0,.91-.76,1.64-1.67,1.62l-3.47-.11c-.87-.03-1.56-.74-1.56-1.62v-5.25c0-.87-.35-1.71-.98-2.32l-16.88-16.45c-.35-.34-.94-.09-.94.4l.26,90.95.02,5.2v.07c-1.72,9.54-12.71,16.91-24.74,16.91-13.1,0-23.69-8.75-23.69-19.54s10.59-19.51,23.69-19.51c.43,0,.88,0,1.34.02,3.15.07,6.73.43,10.59,1.26,1,.22,1.97.45,2.89.7,1.18.32,2.33-.57,2.33-1.8V1.27c0-.7.57-1.27,1.27-1.27h5.16c.34,0,.67.14.91.38l24.55,24.94c.58.59.91,1.39.91,2.21Z"/>
    <text class="cls-4" transform="translate(0 576.97)"><tspan class="cls-2" x="0" y="0">PIANO</tspan><tspan class="cls-5" x="464.86" y="0"> </tspan></text>
    <text class="cls-8" transform="translate(69.03 645.16)"><tspan class="cls-1" x="0" y="0">GAME</tspan><tspan class="cls-3" x="319.06" y="0"> </tspan></text>
  </g>
</svg>